<svg height="512pt" viewBox="-9 0 512 512.00101" width="512pt" xmlns="http://www.w3.org/2000/svg"><path d="m459.253906 398.800781c7.460938-8.992187 11.949219-20.53125 11.949219-33.101562 0-23.347657-15.488281-43.144531-36.730469-49.660157v-22.574218c0-24.347656-19.808594-44.160156-44.15625-44.160156h-127.925781v-37.566407c51.503906-7.398437 91.21875-51.808593 91.21875-105.324219 0-58.675781-47.738281-106.414062-106.414063-106.414062-58.675781 0-106.414062 47.738281-106.414062 106.414062 0 53.511719 39.710938 97.917969 91.207031 105.320313v37.570313h-127.925781c-24.347656 0-44.15625 19.8125-44.15625 44.160156v22.574218c-21.246094 6.515626-36.738281 26.308594-36.738281 49.660157 0 12.570312 4.492187 24.109375 11.953125 33.105469-21.082032 13.3125-35.121094 36.804687-35.121094 63.527343v34.464844c0 8.398437 6.808594 15.203125 15.203125 15.203125h119.800781c8.398438 0 15.203125-6.804688 15.203125-15.203125v-34.464844c0-26.722656-14.042969-50.214843-35.121093-63.53125 7.457031-8.992187 11.949218-20.53125 11.949218-33.101562 0-23.347657-15.488281-43.140625-36.726562-49.660157v-22.574218c0-7.585938 6.167968-13.753906 13.753906-13.753906h127.925781v36.328124c-21.246093 6.515626-36.734375 26.3125-36.734375 49.660157 0 12.570312 4.492188 24.109375 11.949219 33.105469-21.078125 13.3125-35.117187 36.804687-35.117187 63.527343v34.46875c0 8.394531 6.804687 15.199219 15.199218 15.199219h119.804688c8.394531 0 15.203125-6.804688 15.203125-15.199219v-34.46875c0-26.722656-14.042969-50.214843-35.125-63.53125 7.460937-8.992187 11.949219-20.53125 11.949219-33.101562 0-23.347657-15.488282-43.140625-36.726563-49.660157v-36.328124h127.925781c7.582032 0 13.75 6.167968 13.75 13.753906v22.574218c-21.238281 6.515626-36.730468 26.3125-36.730468 49.660157 0 12.570312 4.492187 24.109375 11.953124 33.105469-21.082031 13.3125-35.121093 36.804687-35.121093 63.527343v34.46875c0 8.394531 6.804687 15.199219 15.203125 15.199219h119.800781c8.394531 0 15.203125-6.804688 15.203125-15.199219v-34.46875c0-26.722656-14.039062-50.214843-35.121094-63.53125zm-212.058594-368.171875c5.175782 3.265625 15.863282 23.761719 18.257813 60.582032h-36.515625c2.394531-36.820313 13.082031-57.316407 18.257812-60.582032zm18.257813 90.988282c-2.394531 36.820312-13.082031 57.316406-18.257813 60.582031-5.175781-3.265625-15.863281-23.761719-18.261718-60.582031zm21.816406 49.34375c4.753907-14.699219 7.589844-31.910157 8.625-49.34375h25.78125c-4.234375 20.773437-16.976562 38.480468-34.40625 49.34375zm34.40625-79.75h-25.78125c-1.035156-17.433594-3.871093-34.648438-8.625-49.34375 17.429688 10.863281 30.171875 28.570312 34.40625 49.34375zm-114.554687-49.34375c-4.753906 14.699218-7.589844 31.910156-8.625 49.34375h-25.78125c4.234375-20.773438 16.972656-38.480469 34.40625-49.34375zm-34.40625 79.75h25.78125c1.035156 17.433593 3.871094 34.648437 8.625 49.34375-17.433594-10.863282-30.171875-28.570313-34.40625-49.34375zm-52.910156 359.980468h-89.402344v-19.265625c0-24.648437 20.054687-44.699219 44.703125-44.699219 24.644531 0 44.699219 20.050782 44.699219 44.699219zm-44.703126-94.367187c-11.871093 0-21.527343-9.660157-21.527343-21.53125 0-11.871094 9.65625-21.527344 21.527343-21.527344 11.871094 0 21.53125 9.65625 21.53125 21.527344 0 11.871093-9.660156 21.53125-21.53125 21.53125zm216.785157 94.367187h-89.398438v-19.265625c0-24.648437 20.054688-44.699219 44.699219-44.699219 24.648438 0 44.699219 20.050782 44.699219 44.699219zm-44.699219-94.367187c-11.875 0-21.53125-9.660157-21.53125-21.53125 0-11.871094 9.65625-21.527344 21.53125-21.527344 11.867188 0 21.527344 9.65625 21.527344 21.527344 0 11.871093-9.65625 21.53125-21.527344 21.53125zm216.785156 94.367187h-89.398437v-19.265625c0-24.648437 20.050781-44.699219 44.699219-44.699219 24.648437 0 44.699218 20.050782 44.699218 44.699219zm-44.703125-137.425781c11.871094 0 21.53125 9.65625 21.53125 21.527344 0 11.871093-9.660156 21.53125-21.53125 21.53125-11.871093 0-21.527343-9.660157-21.527343-21.53125 0-11.871094 9.65625-21.527344 21.527343-21.527344zm0 0"/></svg>